<svg width="80" height="20" viewBox="0 0 80 20" fill="none" xmlns="http://www.w3.org/2000/svg">
<g clip-path="url(#clip0_1_77)">
<path fill-rule="evenodd" clip-rule="evenodd" d="M19.7231 3.30608L16.6939 0.276913C16.3247 -0.0923043 15.7261 -0.0923043 15.3569 0.276913L10 5.63378L4.64314 0.276913C4.27392 -0.0923043 3.6753 -0.0923043 3.30608 0.276913L0.276913 3.30608C-0.0923043 3.6753 -0.0923043 4.27392 0.276913 4.64314L5.63378 10L0.276913 15.3569C-0.0923043 15.7261 -0.0923043 16.3247 0.276913 16.6939L3.30608 19.7231C3.6753 20.0923 4.27392 20.0923 4.64314 19.7231L10 14.3662L15.3569 19.7231C15.7261 20.0923 16.3247 20.0923 16.6939 19.7231L19.7231 16.6939C20.0923 16.3247 20.0923 15.7261 19.7231 15.3569L14.3662 10L19.7231 4.64314C20.0923 4.27392 20.0923 3.6753 19.7231 3.30608Z" fill="#A8BFC9"/>
<path d="M37.1451 16V4.864H39.6571V16H37.1451ZM33.6091 6.896V4.704H43.1931V6.896H33.6091ZM50.0773 16.176C49.1493 16.176 48.328 15.9787 47.6133 15.584C46.9093 15.1893 46.3546 14.6453 45.9493 13.952C45.5546 13.248 45.3573 12.448 45.3573 11.552V4.704H47.8853V11.696C47.8853 12.144 47.9813 12.5333 48.1733 12.864C48.3653 13.1947 48.6266 13.4507 48.9573 13.632C49.2986 13.8027 49.672 13.888 50.0773 13.888C50.504 13.888 50.8773 13.8027 51.1973 13.632C51.5173 13.4507 51.768 13.2 51.9493 12.88C52.1413 12.5493 52.2373 12.16 52.2373 11.712V4.704H54.7653V11.568C54.7653 12.464 54.568 13.2587 54.1733 13.952C53.7786 14.6453 53.2293 15.1893 52.5253 15.584C51.8213 15.9787 51.0053 16.176 50.0773 16.176ZM59.6877 11.344V9.488H62.0717C62.573 9.488 62.957 9.36 63.2237 9.104C63.501 8.848 63.6397 8.50133 63.6397 8.064C63.6397 7.65867 63.5064 7.32267 63.2397 7.056C62.973 6.78933 62.589 6.656 62.0877 6.656H59.6877V4.704H62.3757C63.1224 4.704 63.7784 4.848 64.3437 5.136C64.909 5.41333 65.3517 5.80267 65.6717 6.304C65.9917 6.80533 66.1517 7.38133 66.1517 8.032C66.1517 8.69333 65.9917 9.27467 65.6717 9.776C65.3517 10.2667 64.9037 10.6507 64.3277 10.928C63.7517 11.2053 63.0744 11.344 62.2957 11.344H59.6877ZM57.7677 16V4.704H60.2797V16H57.7677ZM63.9117 16L60.3917 11.136L62.6957 10.512L66.8877 16H63.9117ZM68.9864 16V4.704H70.7464L71.4984 6.96V16H68.9864ZM76.7784 16L70.1224 7.472L70.7464 4.704L77.4024 13.232L76.7784 16ZM76.7784 16L76.1064 13.744V4.704H78.6184V16H76.7784Z" fill="#A8BFC9"/>
</g>
<defs>
<clipPath id="clip0_1_77">
<rect width="80" height="20" fill="white"/>
</clipPath>
</defs>
</svg>
